PathFileType	4	(X/Y/Z)	/Users/visionmauri/1_9_1_f_Sports2D/1_9_1_f_Sports2D_px_person00.trc
DataRate	CameraRate	NumFrames	NumMarkers	Units	OrigDataRate	OrigDataStartFrame	OrigNumFrames
30.0	30.0	5	22	m	30.0	0	349
Frame#	Time	Hip			RHip			RKnee			RAnkle			RBigToe			RSmallToe			RHeel			LHip			LKnee			LAnkle			LBigToe			LSmallToe			LHeel			Neck			Head			Nose			RShoulder			RElbow			RWrist			LShoulder			LElbow			LWrist			
		X1	Y1	Z1	X2	Y2	Z2	X3	Y3	Z3	X4	Y4	Z4	X5	Y5	Z5	X6	Y6	Z6	X7	Y7	Z7	X8	Y8	Z8	X9	Y9	Z9	X10	Y10	Z10	X11	Y11	Z11	X12	Y12	Z12	X13	Y13	Z13	X14	Y14	Z14	X15	Y15	Z15	X16	Y16	Z16	X17	Y17	Z17	X18	Y18	Z18	X19	Y19	Z19	X20	Y20	Z20	X21	Y21	Z21	X22	Y22	Z22
0	0.0	681.9377947914974	818.0689323376054	0.0	771.5674195673566	822.5483792200979	0.0	780.5301313358694	1243.8082807457708	0.0	713.3079921921521	1606.8081116367482	0.0	825.3449363694757	1629.217514366836	0.0	834.308180176022	1656.105861393098	0.0	686.4188151294297	1656.1040301169157	0.0	601.2711519630686	822.5512844058148	0.0	605.7531891540033	1127.2888632994127	0.0	596.7899254193154	1467.8774168874238	0.0	587.8271393307622	1512.7126771711953	0.0	551.9748015904319	1508.2000602504443	0.0	596.7898301229119	1521.661745522813	0.0	686.4189612529547	351.9981368367182	0.0	672.9746295584325	195.143867319782	0.0	681.9378026984413	289.2553329861636	0.0	843.2702658297569	387.84805166638563	0.0	914.9742704314677	652.2542817635522	0.0	910.4927602893872	818.0688396243098	0.0	534.0493709736339	392.32949424257674	0.0	457.8647501822041	661.2170409230937	0.0	475.7905017809162	652.2540326080632	0.0
1	0.03342911877394636	680.9834542944557	815.5214591533444	0.0	770.4607835733161	822.9913224010168	0.0	780.4854170536862	1242.8210836309495	0.0	713.0395114148573	1605.0019897911307	0.0	826.1981259017123	1629.392379748884	0.0	833.6754453590784	1655.2720987287962	0.0	685.9841439424633	1656.1033559675716	0.0	598.7807766755218	822.6185968911224	0.0	604.2572800210999	1129.1964811458574	0.0	598.3833089507434	1481.7134431894724	0.0	585.4877597211627	1521.1692116273755	0.0	552.1942873342355	1520.1605516363134	0.0	596.234803100308	1378.1048844149682	0.0	683.7181658370519	352.4365369944577	0.0	670.1776590999879	196.7207471647455	0.0	678.9298144410575	288.9720379736459	0.0	842.9917189063965	390.3652793164932	0.0	912.1604156306845	652.9974251821233	0.0	911.53836217803	818.3595019536326	0.0	532.9526511213047	393.64244186624234	0.0	456.7260097006662	661.8246997394182	0.0	472.3923364264962	653.7067628732894	0.0
2	0.06685823754789272	678.230543534022	812.5251751198879	0.0	767.4285329673539	823.7790200338745	0.0	780.6513270951382	1237.7528119553479	0.0	714.7248853442268	1597.2020853780834	0.0	829.256273933267	1629.133193307827	0.0	833.9665310854543	1653.0198179621777	0.0	686.9102037792642	1649.1764710330906	0.0	594.5192485182248	822.5281002846032	0.0	601.2648578785557	1129.6342772690869	0.0	599.6056642010126	1494.8409914315844	0.0	582.9574233219428	1523.4414854325494	0.0	552.5505984485866	1527.6024756878255	0.0	595.5063249549928	1201.0702942039077	0.0	678.7041795660418	352.49056814805493	0.0	665.0537887438005	198.5749382035578	0.0	672.7456839728154	288.4562456131605	0.0	838.417403063571	392.6568193317792	0.0	907.8897394468281	652.3777114892181	0.0	912.1467913358491	818.2826446700735	0.0	528.6794102867375	397.64758187095754	0.0	452.06607082041245	662.0975542513813	0.0	465.4922687164372	653.6446950968709	0.0
3	0.10028735632183908	673.0344400747948	809.3085453226012	0.0	761.8494104003087	823.8071440867614	0.0	780.8746701954633	1226.1579255658057	0.0	719.1143659485539	1580.8766912952792	0.0	835.2704120846685	1628.2739576433285	0.0	836.1857189467257	1648.4037401355247	0.0	690.183306668285	1631.7114965812239	0.0	588.8651210033872	821.8801372217638	0.0	597.3368511928787	1129.4685025175368	0.0	599.9735176658828	1499.9037526880113	0.0	580.9378195040264	1517.8039704420482	0.0	553.0729417698929	1527.0825313542766	0.0	593.8634219657415	1039.3215051340055	0.0	671.354905591012	352.8198144923815	0.0	658.0165247012142	199.90096826161277	0.0	664.139116952171	287.83054972836703	0.0	829.2757011507846	393.60321892379164	0.0	902.298424929077	649.6824516965273	0.0	912.0953316811781	817.5789282544208	0.0	521.1629527478143	403.27183142010097	0.0	443.76329046991196	661.9361178243686	0.0	454.93965743757485	648.8981821509475	0.0
4	0.13371647509578544	666.6242351487864	805.6063231196923	0.0	754.9553252571876	821.1974813408731	0.0	780.9328116553387	1208.4497195458164	0.0	725.2499142263549	1556.6133110116302	0.0	842.9750957227556	1626.5360921480928	0.0	840.2850256072775	1640.9687977090925	0.0	695.2738049539157	1605.6888819254793	0.0	583.7837898308142	819.643973045709	0.0	593.7486073701918	1130.8960049258458	0.0	599.7903042921866	1471.7981941372284	0.0	581.69603134461	1510.4375531599028	0.0	553.8596173383316	1523.0104509791188	0.0	591.7384961284847	945.7101129297369	0.0	662.6989646677539	354.0216626165849	0.0	650.6168120668548	200.95395297725867	0.0	655.3727442508834	288.04122430878135	0.0	818.6803746672157	393.0893058610492	0.0	896.5462093353287	646.0130955708388	0.0	911.8067783204966	816.5863232978651	0.0	512.813629740614	407.39538894489766	0.0	434.0983120390966	662.3636565162445	0.0	443.8585691716032	638.8578655858395	0.0
